:SAMPLES-PER-SECOND 30
:FULLY-SPECIFIED
:DEGREES
491
root  -10.4954 34.6965 1.34618 -170.674 37.8788 -174.739
RightUpLeg  -8.6271 9.10444 1.41934
RightLeg  0.76325 16.9535 -0.846718
RightFoot  11.603 -0.31774 3.56639
RightToes  -42.6818 -0.240253 -0.329765
Spine  -2.78363 -1.89962 -1.11905
Spine1  -5.54244 -3.81553 -1.27628
HEad  -65.1821 -42.6225 0.756676
LeftShoulder1  -1.94126e-019 -3.10601e-018 -2.51263e-017
LeftArm  -3.08482 22.992 -78.4898
LeftForeArm  33.4777 -24.1131 -4.05279
LeftHand  -0.323774 -0.416863 6.56394
RightShoulder  -4.96962e-017 0 -2.36833e-017
RightArm  -65.5376 -7.10804 42.6862
RightForeArm  -161.441 64.032 162.537
RightHand  0.107873 -5.63067 -43.216
LeftUpLeg  -2.62827 22.7388 4.27664
LeftLeg  12.5985 29.1277 4.36558
LeftFoot  0.525767 -0.00139864 0.466505
LeftToes  -20.8458 2.14545e-006 -7.7278e-009
492
root  -10.453 34.7105 1.29831 -171.016 35.4892 -175.157
RightUpLeg  -8.23196 7.52735 1.31417
RightLeg  0.852292 16.1694 -0.784004
RightFoot  11.1703 -0.276831 3.2748
RightToes  -42.4846 -0.238629 -0.327985
Spine  -2.78333 -1.745 -1.10901
Spine1  -5.54558 -3.50881 -1.28381
HEad  -64.5961 -42.6538 0.356636
LeftShoulder1  -1.94126e-019 -3.10601e-018 -2.51263e-017
LeftArm  -4.89638 22.8681 -77.9555
LeftForeArm  34.5556 -21.984 -3.76932
LeftHand  -0.327304 -0.203933 6.86765
RightShoulder  -4.96962e-017 0 -2.36833e-017
RightArm  -70.0105 -3.79659 44.9696
RightForeArm  177.129 63.0307 161.309
RightHand  1.80932 -9.85741 -44.0651
LeftUpLeg  -2.54932 21.4345 4.22206
LeftLeg  11.7691 28.1008 3.82762
LeftFoot  0.853183 -0.00347309 0.628106
LeftToes  -21.0313 2.14545e-006 -7.7278e-009
493
root  -10.408 34.724 1.25549 -171.387 32.7702 -175.567
RightUpLeg  -7.76773 5.72405 1.233
RightLeg  0.965063 15.2864 -0.712684
RightFoot  10.6887 -0.235471 2.96626
RightToes  -41.962 -0.234343 -0.325935
Spine  -2.76411 -1.57673 -1.09981
Spine1  -5.50727 -3.17987 -1.27925
HEad  -64.076 -42.2928 0.210565
LeftShoulder1  -1.94126e-019 -3.10601e-018 -2.51263e-017
LeftArm  -6.50414 22.8083 -77.216
LeftForeArm  34.8266 -20.4285 -3.55672
LeftHand  -0.346037 -0.0760838 7.41642
RightShoulder  -4.96962e-017 0 -2.36833e-017
RightArm  -72.5889 -1.11854 46.7484
RightForeArm  164.729 62.0599 160.839
RightHand  2.76891 -12.1977 -44.243
LeftUpLeg  -2.45048 20.0002 4.20044
LeftLeg  10.8575 26.9183 3.26073
LeftFoot  1.20883 -0.00659206 0.786494
LeftToes  -21.2324 2.14545e-006 -7.7278e-009
494
root  -10.3649 34.7375 1.21209 -171.784 29.7695 -176.001
RightUpLeg  -7.24793 4.17551 1.11499
RightLeg  1.12505 13.8803 -0.610365
RightFoot  10.2129 -0.189931 2.58265
RightToes  -41.0995 -0.227326 -0.321249
Spine  -2.79829 -1.46193 -1.10777
Spine1  -5.56642 -2.97406 -1.27189
HEad  -62.9894 -40.9055 -0.0750195
LeftShoulder1  -1.94126e-019 -3.10601e-018 -2.51263e-017
LeftArm  -7.73312 23.0725 -76.2364
LeftForeArm  34.5677 -19.6306 -3.43894
LeftHand  -0.343904 0.0395906 7.51936
RightShoulder  -4.96962e-017 0 -2.36833e-017
RightArm  -70.0417 0.219576 48.0791
RightForeArm  167.8 61.3806 161.63
RightHand  2.83355 -12.5214 -43.3314
LeftUpLeg  -2.39401 18.3063 4.15034
LeftLeg  10.0033 25.6879 2.74791
LeftFoot  1.61203 -0.0111029 0.950803
LeftToes  -21.4511 2.14545e-006 -7.7278e-009
495
root  -10.3275 34.7481 1.17072 -172.198 26.503 -176.465
RightUpLeg  -6.73717 2.80108 0.952678
RightLeg  1.41075 12.0327 -0.471097
RightFoot  9.54034 -0.136999 2.10931
RightToes  -39.4397 -0.214023 -0.311935
Spine  -2.81011 -1.38858 -1.11445
Spine1  -5.57043 -2.86811 -1.24164
HEad  -62.0315 -38.0199 -0.0335433
LeftShoulder1  -1.94126e-019 -3.10601e-018 -2.51263e-017
LeftArm  -8.49754 23.3606 -75.1084
LeftForeArm  34.4338 -19.4534 -3.40928
LeftHand  -0.322491 0.169875 7.2154
RightShoulder  -4.96962e-017 0 -2.36833e-017
RightArm  -63.3655 0.508628 48.8675
RightForeArm  176.827 60.0136 163.383
RightHand  2.17048 -11.1736 -41.198
LeftUpLeg  -2.43653 16.4448 4.0588
LeftLeg  9.30711 24.3677 2.32594
LeftFoot  1.9934 -0.017895 1.08088
LeftToes  -21.5634 2.14545e-006 -7.7278e-009
496
root  -10.3036 34.7545 1.13332 -172.635 23.0377 -176.917
RightUpLeg  -6.21014 1.3552 0.78151
RightLeg  1.79999 10.0873 -0.327784
RightFoot  8.93717 -0.0938845 1.67963
RightToes  -37.8969 -0.201905 -0.302936
Spine  -2.73657 -1.36423 -1.09576
Spine1  -5.39135 -2.88285 -1.15372
HEad  -61.1875 -33.3381 0.159008
LeftShoulder1  -1.94126e-019 -3.10601e-018 -2.51263e-017
LeftArm  -8.96758 23.435 -73.9675
LeftForeArm  34.5525 -19.6432 -3.44228
LeftHand  -0.316507 0.232748 7.16167
RightShoulder  -4.96962e-017 0 -2.36833e-017
RightArm  -53.8959 0.963235 49.1364
RightForeArm  -173.41 57.8896 165.465
RightHand  1.30546 -9.1543 -38.3751
LeftUpLeg  -2.55859 14.4431 3.95123
LeftLeg  8.8017 22.9658 2.00105
LeftFoot  2.27879 -0.0220554 1.14469
LeftToes  -21.5954 2.14545e-006 -7.7278e-009
497
root  -10.2912 34.7582 1.10675 -173.087 19.4699 -177.332
RightUpLeg  -5.67946 -0.0367052 0.620188
RightLeg  2.27792 7.99004 -0.193787
RightFoot  8.19933 -0.0546292 1.25183
RightToes  -35.5806 -0.184177 -0.288821
Spine  -2.63527 -1.27353 -1.04891
Spine1  -5.15134 -2.77635 -1.01807
HEad  -61.2466 -26.7525 0.877994
LeftShoulder1  -1.94126e-019 -3.10601e-018 -2.51263e-017
LeftArm  -9.22095 23.305 -72.9312
LeftForeArm  34.9105 -20.0683 -3.52509
LeftHand  -0.317393 0.151034 7.20861
RightShoulder  -4.96962e-017 0 -2.36833e-017
RightArm  -43.5957 2.13986 48.5869
RightForeArm  -161.661 56.2196 167.214
RightHand  -0.0262527 -5.28974 -35.5005
LeftUpLeg  -2.84902 12.2845 3.83792
LeftLeg  8.70381 21.6309 1.85419
LeftFoot  2.44302 -0.0233484 1.14572
LeftToes  -21.4958 2.14545e-006 -7.7278e-009
498
root  -10.2912 34.7583 1.09249 -173.564 15.6796 -177.742
RightUpLeg  -5.14168 -1.30079 0.438649
RightLeg  2.86359 5.50545 -0.0775235
RightFoot  7.39935 -0.0209015 0.826052
RightToes  -33.3399 -0.167583 -0.274496
Spine  -2.45449 -1.02571 -0.989863
Spine1  -4.77087 -2.32057 -0.898012
HEad  -61.3259 -19.6613 2.21132
LeftShoulder1  -1.94126e-019 -3.10601e-018 -2.51263e-017
LeftArm  -9.15028 22.6795 -72.0556
LeftForeArm  34.9063 -20.5465 -3.62196
LeftHand  -0.322109 0.133183 7.16003
RightShoulder  -4.96962e-017 0 -2.36833e-017
RightArm  -36.6966 4.17949 47.5985
RightForeArm  -146.108 55.1003 168.737
RightHand  -1.77784 0.596151 -33.7581
LeftUpLeg  -3.36217 10.0004 3.71033
LeftLeg  9.05893 20.1771 1.85829
LeftFoot  2.5656 -0.0233154 1.11506
LeftToes  -21.7046 2.14545e-006 -7.7278e-009
499
root  -10.3095 34.7511 1.08612 -174.046 11.7319 -178.163
RightUpLeg  -4.64797 -2.50186 0.219419
RightLeg  3.60932 2.74414 -0.00265665
RightFoot  6.4719 0.00447266 0.437779
RightToes  -31.0759 -0.151399 -0.259374
Spine  -2.22492 -0.578231 -0.968754
Spine1  -4.30402 -1.43953 -0.877272
HEad  -61.2859 -12.5223 4.27767
LeftShoulder1  -1.94126e-019 -3.10601e-018 -2.51263e-017
LeftArm  -8.72746 21.7118 -71.3162
LeftForeArm  34.4627 -21.3578 -3.76873
LeftHand  -0.319078 0.3108 7.32326
RightShoulder  -4.96962e-017 0 -2.36833e-017
RightArm  -33.972 6.66406 46.7539
RightForeArm  -127.013 54.5151 169.902
RightHand  -3.25262 3.80794 -39.7265
LeftUpLeg  -4.00695 7.41808 3.51272
LeftLeg  9.67554 18.846 1.94117
LeftFoot  2.56348 -0.0208814 1.04315
LeftToes  -21.6286 2.14545e-006 -7.7278e-009
500
root  -10.338 34.7384 1.08369 -174.508 7.52544 -178.583
RightUpLeg  -4.12712 -3.76527 -0.0203854
RightLeg  4.38991 -0.214261 -0.00170173
RightFoot  5.49199 0.0195302 0.124096
RightToes  -29.0512 -0.137442 -0.245318
Spine  -2.01582 -0.0362521 -1.01177
Spine1  -3.8911 -0.337401 -1.00887
HEad  -60.6565 -5.31336 6.87357
LeftShoulder1  -1.94126e-019 -3.10601e-018 -2.51263e-017
LeftArm  -8.50506 20.5917 -70.6336
LeftForeArm  34.1826 -22.3455 -3.94196
LeftHand  -0.363185 0.102739 8.02899
RightShoulder  -4.96962e-017 0 -2.36833e-017
RightArm  -34.8489 9.21799 46.6501
RightForeArm  -122.76 54.0124 170.258
RightHand  -3.45816 2.96459 -45.8267
LeftUpLeg  -4.79008 4.68438 3.28187
LeftLeg  10.4978 17.4063 2.04634
LeftFoot  2.55955 -0.0180068 0.967595
LeftToes  -21.8141 2.14545e-006 -7.7278e-009
501
root  -10.3726 34.7284 1.07666 -174.869 2.93968 -179.001
RightUpLeg  -3.55891 -5.61922 -0.298657
RightLeg  5.0791 -2.88537 -0.0690068
RightFoot  4.57437 0.0244879 -0.0697483
RightToes  -27.4224 -0.12658 -0.233658
Spine  -1.87396 0.510476 -1.10161
Spine1  -3.6248 0.797113 -1.24727
HEad  -59.3914 1.46344 9.93597
LeftShoulder1  -1.94126e-019 -3.10601e-018 -2.51263e-017
LeftArm  -8.57906 19.5837 -70.1337
LeftForeArm  33.9164 -23.349 -4.10382
LeftHand  -0.290402 0.445493 6.83085
RightShoulder  -4.96962e-017 0 -2.36833e-017
RightArm  -38.1377 11.3765 47.3612
RightForeArm  -131.045 53.2756 170.251
RightHand  -2.79185 1.45219 -45.2534
LeftUpLeg  -5.63973 1.65603 3.03354
LeftLeg  11.2097 15.8809 2.06942
LeftFoot  2.69089 -0.0180316 0.929295
LeftToes  -22.0138 2.14545e-006 -7.7278e-009
